<?xml version="1.0" standalone="no"?>
<!DOCTYPE svg PUBLIC "-//W3C//DTD SVG 1.1//EN" "http://www.w3.org/Graphics/SVG/1.1/DTD/svg11.dtd" >
<svg xmlns="http://www.w3.org/2000/svg" xmlns:xlink="http://www.w3.org/1999/xlink" version="1.1">
<metadata>
Created by FontForge 20170731 at Mon Apr 23 02:11:44 2018
 By Aleksey,,,
Copyright (c) 2018 by Ilhamherry. All rights reserved.
</metadata>
<defs>
<font id="CanisteDemo-Semibold" horiz-adv-x="0" >
  <font-face 
    font-family="Caniste (Demo) Semibold"
    font-weight="600"
    font-stretch="normal"
    units-per-em="1000"
    panose-1="0 0 7 0 0 0 0 0 0 0"
    ascent="800"
    descent="-200"
    x-height="550"
    cap-height="787"
    bbox="-477 -271 1297 829"
    underline-thickness="50"
    underline-position="-150"
    unicode-range="U+0020-2122"
  />
<missing-glyph horiz-adv-x="600" 
d="M131.5 34q-66.5 42 -104 120t-37.5 182q0 107 38.5 184.5t105 118t149.5 40.5q86 0 152 -42t103 -119.5t37 -181.5q0 -107 -38.5 -185t-105 -118.5t-148.5 -40.5q-85 0 -151.5 42zM322 209q-13 6 -20.5 18t-7.5 24q0 25 13.5 45t41.5 48q35 34 54 64.5t19 75.5
q0 31 -17 57.5t-49.5 43t-76.5 16.5t-66.5 -6t-26.5 -7h-4q-8 0 -13 6h-6l-7 -111h6q7 13 38 23.5t60 10.5q66 0 66 -55q0 -23 -11.5 -41t-35.5 -44q-30 -32 -45.5 -58t-15.5 -63t18.5 -59.5t41.5 -22.5q32 0 44 35zM309.5 50q13.5 13 13.5 35t-13.5 35t-34.5 13t-34.5 -13
t-13.5 -35q0 -23 13.5 -35.5t34.5 -12.5t34.5 13z" />
    <glyph glyph-name=".notdef" horiz-adv-x="600" 
d="M131.5 34q-66.5 42 -104 120t-37.5 182q0 107 38.5 184.5t105 118t149.5 40.5q86 0 152 -42t103 -119.5t37 -181.5q0 -107 -38.5 -185t-105 -118.5t-148.5 -40.5q-85 0 -151.5 42zM322 209q-13 6 -20.5 18t-7.5 24q0 25 13.5 45t41.5 48q35 34 54 64.5t19 75.5
q0 31 -17 57.5t-49.5 43t-76.5 16.5t-66.5 -6t-26.5 -7h-4q-8 0 -13 6h-6l-7 -111h6q7 13 38 23.5t60 10.5q66 0 66 -55q0 -23 -11.5 -41t-35.5 -44q-30 -32 -45.5 -58t-15.5 -63t18.5 -59.5t41.5 -22.5q32 0 44 35zM309.5 50q13.5 13 13.5 35t-13.5 35t-34.5 13t-34.5 -13
t-13.5 -35q0 -23 13.5 -35.5t34.5 -12.5t34.5 13z" />
    <glyph glyph-name=".null" 
 />
    <glyph glyph-name="nonmarkingreturn" horiz-adv-x="333" 
 />
    <glyph glyph-name="space" unicode=" " horiz-adv-x="290" 
 />
    <glyph glyph-name="exclam" unicode="!" horiz-adv-x="285" 
d="M82 608q-8 119 -35 142l-1 8l47 2h98l47 -2l-1 -8q-27 -23 -35 -142l-24 -423l-71 1zM98.5 6.5q-16.5 16.5 -16.5 44.5t16.5 43.5t43.5 15.5t44 -15.5t17 -43.5t-17 -44.5t-44 -16.5t-43.5 16.5z" />
    <glyph glyph-name="quotedbl" unicode="&#x22;" horiz-adv-x="399" 
d="M46 511q11 12 16.5 46t5.5 74t-5.5 74.5t-15.5 47.5v7h127v-7q-11 -13 -16.5 -47t-5.5 -74q0 -41 5 -75.5t16 -46.5v-7l-127 1v7zM240.5 557q5.5 34 5.5 74t-5.5 74.5t-15.5 47.5v7h127v-7q-11 -13 -16.5 -47t-5.5 -74q0 -41 5 -75.5t16 -46.5v-6h-127v7q11 12 16.5 46z
" />
    <glyph glyph-name="numbersign" unicode="#" horiz-adv-x="675" 
d="M447 215h122l-22 -64h-123l-53 -151h-79l53 151h-102l-53 -151h-79l53 151h-118l22 64h119l44 125h-125l22 64h126l51 146h79l-51 -146h102l51 146h79l-51 -146h115l-22 -64h-116zM310 340l-44 -125h102l44 125h-102z" />
    <glyph glyph-name="dollar" unicode="$" horiz-adv-x="438" 
d="M363.5 65.5q-34.5 -44.5 -93.5 -63.5v-85h-82v73q-39 0 -86 14q-24 6 -28 6q-11 0 -17 -10h-8l-6 157h9q5 -12 24 -29t48 -29.5t64 -12.5q45 0 70 22.5t25 54.5q0 30 -22.5 46t-72.5 34l-25 9q-55 22 -88 60.5t-33 94.5q0 58 38 97.5t110 51.5v99h79v-96q23 -1 42 -4
t26 -4h4q10 0 19 10h8l5 -144h-8q-11 18 -46 32.5t-77 14.5q-43 0 -63 -15.5t-20 -38.5q0 -26 21.5 -40.5t70.5 -33.5q71 -24 109 -65t38 -99q0 -62 -34.5 -106.5z" />
    <glyph glyph-name="percent" unicode="%" horiz-adv-x="679" 
d="M74 307q-34 40 -34 106q0 68 34.5 107t89.5 39q56 0 88.5 -40t32.5 -106q0 -68 -33.5 -107t-87.5 -39q-56 0 -90 40zM212 413q0 38 -12 59t-36 21q-50 0 -50 -80t50 -80q48 0 48 80zM426.5 30q-33.5 40 -33.5 106q0 68 34 107t89 39q56 0 89.5 -40t33.5 -106
q0 -68 -34 -107t-89 -39q-56 0 -89.5 40zM565 136q0 79 -49 79t-49 -79q0 -80 49 -80t49 80zM488 569l-228 -571h-68l228 571h68z" />
    <glyph glyph-name="ampersand" unicode="&#x26;" horiz-adv-x="629" 
d="M471 -62l-6 5q0 31 -42 91q-59 -44 -146 -44q-68 0 -122 26t-84.5 72.5t-30.5 105.5t30.5 110t88.5 75l-65 85l38 87h338l10 -73l6 -47l-8 -1q-16 12 -56.5 18t-90.5 6h-94l193 -244q6 27 6 55q0 21 -5 33t-17 26v8h151v-8q-12 -13 -18 -27.5t-11 -37.5q-12 -78 -39 -133
q57 -64 87 -64l6 -5zM170 147.5q16 -28.5 46 -46t71 -17.5q47 0 82 24l-158 205q-26 -19 -41.5 -46.5t-15.5 -58.5q0 -32 16 -60.5z" />
    <glyph glyph-name="quotesingle" unicode="'" horiz-adv-x="221" 
d="M157.5 706q-5.5 -34 -5.5 -74q0 -41 5 -75.5t16 -46.5v-6h-127v7q11 12 16.5 46t5.5 74t-5.5 74.5t-15.5 47.5v7h127v-7q-11 -13 -16.5 -47z" />
    <glyph glyph-name="parenleft" unicode="(" horiz-adv-x="347" 
d="M98 53.5q-52 126.5 -52 270.5q0 133 52 253.5t145 182.5l57 -67q-74 -56 -115 -158.5t-41 -214.5q0 -121 41.5 -227t114.5 -160l-57 -67q-93 61 -145 187.5z" />
    <glyph glyph-name="parenright" unicode=")" horiz-adv-x="346" 
d="M247 580.5q53 -118.5 53 -255.5q0 -139 -53.5 -258t-143.5 -179l-57 67q73 55 114.5 156.5t41.5 212.5t-41.5 212.5t-114.5 156.5l57 67q91 -61 144 -179.5z" />
    <glyph glyph-name="asterisk" unicode="*" horiz-adv-x="405" 
d="M359 511l-41 -71l-96 80l21 -123h-81l21 123l-96 -80l-41 71l117 43l-117 43l41 71l96 -80l-21 123h81l-21 -123l96 80l41 -71l-116 -43z" />
    <glyph glyph-name="plus" unicode="+" horiz-adv-x="480" 
d="M289 239v-161h-98v161h-151v88h151v151h98v-151h151v-88h-151z" />
    <glyph glyph-name="comma" unicode="," horiz-adv-x="213" 
d="M150 93q17 -19 17 -52q0 -36 -19.5 -68t-68.5 -32v22q27 5 36 28q-4 -1 -12 -1q-25 0 -41 17t-16 44q0 29 16.5 45t42.5 16q28 0 45 -19z" />
    <glyph glyph-name="hyphen" unicode="-" horiz-adv-x="403" 
d="M356 238h-310v90h310v-90z" />
    <glyph glyph-name="period" unicode="." horiz-adv-x="213" 
d="M63.5 6.5q-16.5 16.5 -17.5 44.5q0 28 16.5 43.5t44.5 15.5q26 0 43 -15.5t17 -43.5t-17 -44.5t-43 -16.5q-27 0 -43.5 16.5z" />
    <glyph glyph-name="slash" unicode="/" horiz-adv-x="477" 
d="M46 -94l302 854h83l-302 -854h-83z" />
    <glyph glyph-name="zero" unicode="0" horiz-adv-x="582" 
d="M497.5 123q-31.5 -64 -85.5 -97.5t-121 -33.5q-69 0 -123 34.5t-84.5 99t-30.5 150.5q0 89 31 153t85 97.5t122 33.5q70 0 124 -34.5t84 -99t30 -150.5q0 -89 -31.5 -153zM381.5 137.5q29.5 49.5 29.5 138.5t-29.5 138.5t-90.5 49.5t-90.5 -49.5t-29.5 -138.5
t29.5 -138.5t90.5 -49.5t90.5 49.5z" />
    <glyph glyph-name="one" unicode="1" horiz-adv-x="314" 
d="M226.5 60.5q6.5 -39.5 20.5 -53.5v-8h-47l-78 1h-47v8q14 14 20.5 53.5t6.5 90.5l1 206q0 118 -33 132l-3 8l130 51l25 1l-1 -399q-1 -51 5.5 -90.5z" />
    <glyph glyph-name="two" unicode="2" horiz-adv-x="500" 
d="M429 80l-9 -80h-361v51q0 80 38.5 150t116.5 108q38 19 56 29.5t30.5 26t12.5 37.5q0 55 -94 55q-38 0 -78.5 -15.5t-50.5 -32.5h-8l9 142h8q7 -8 18 -8q5 0 35.5 8.5t92.5 8.5q58 0 100 -21.5t64 -57t22 -76.5q0 -44 -16 -74t-51.5 -55.5t-102.5 -60.5
q-37 -20 -60.5 -50.5t-28.5 -62.5h137q41 0 73 6t45 19l7 -1z" />
    <glyph glyph-name="three" unicode="3" horiz-adv-x="478" 
d="M386 246q26 -33 26 -80t-24.5 -87t-74 -64.5t-121.5 -24.5q-38 0 -63 4t-28 4h-4q-11 0 -18 -8h-8l-9 140h8q9 -16 47 -26.5t78 -10.5q48 0 73.5 25t25.5 56q0 34 -26.5 55t-68.5 21q-16 0 -39 -5v90q17 -3 31 -3q37 0 60.5 18.5t23.5 50.5q0 26 -20.5 41t-58.5 15
q-41 0 -78.5 -10.5t-46.5 -26.5h-8l9 140h8q7 -8 18 -8q7 0 34 4t62 4q104 0 151.5 -40t47.5 -110q0 -40 -20 -70.5t-52 -47.5q39 -13 65 -46z" />
    <glyph glyph-name="four" unicode="4" horiz-adv-x="524" 
d="M456 184l-2 -76h-59q3 -79 25 -101v-8h-47l-78 1h-47v8q21 21 26 100h-222l-26 56l272 386h97l-1 -339q41 7 56 20h8zM159 205h116l1 174z" />
    <glyph glyph-name="five" unicode="5" horiz-adv-x="499" 
d="M352.5 324.5q40.5 -24.5 60 -63t19.5 -79.5q0 -52 -25.5 -96t-75 -70t-118.5 -26q-37 0 -66.5 5t-34.5 6h-4q-10 0 -18 -8h-8l-9 140h8q9 -16 51.5 -28t82.5 -12q53 0 76 27.5t23 59.5q0 35 -20 57.5t-67 22.5q-31 0 -64 -10.5t-49 -22.5l-32 34v289l321 -2v-138h-8
q-14 14 -53.5 21t-90.5 7h-73v-98q38 9 73 9q61 0 101.5 -24.5z" />
    <glyph glyph-name="six" unicode="6" horiz-adv-x="557" 
d="M414.5 328.5q40.5 -22.5 61.5 -61t21 -84.5q0 -47 -20 -90.5t-65 -72t-116 -28.5q-67 0 -119 32.5t-81.5 96t-29.5 151.5q0 89 34.5 154.5t92.5 99.5t128 34q5 0 47 -3q24 -2 31 -2q25 0 32 7h8l9 -138h-8q-13 16 -39 28t-66 12q-69 0 -106 -44t-43 -118q51 49 131 49
q57 0 97.5 -22.5zM363.5 113q22.5 25 22.5 64q0 35 -24.5 60t-66.5 25q-33 0 -59.5 -16.5t-44.5 -42.5q9 -53 35 -84t71 -31q44 0 66.5 25z" />
    <glyph glyph-name="seven" unicode="7" horiz-adv-x="470" 
d="M96 0l182 439h-60q-51 0 -90.5 -7t-53.5 -21h-8v137l372 2l-228 -551z" />
    <glyph glyph-name="eight" unicode="8" horiz-adv-x="559" 
d="M466.5 246.5q25.5 -35.5 25.5 -87.5q0 -48 -26 -86.5t-74 -60.5t-113 -22q-57 0 -106 21t-78 59.5t-29 88.5q0 52 26 87.5t65 49.5q-31 16 -50 44.5t-19 66.5q0 74 49.5 112.5t141.5 40.5q87 0 139 -39t52 -114q0 -38 -18.5 -66.5t-49.5 -44.5q39 -14 64.5 -49.5z
M225 440.5q-19 -16.5 -19 -43.5q0 -30 20 -46.5t53 -16.5t53.5 16.5t20.5 46.5q0 27 -19 43.5t-55 16.5q-35 0 -54 -16.5zM350 118.5q25 24.5 25 55.5q0 36 -26 57.5t-70 21.5q-43 0 -69 -22.5t-26 -56.5q0 -31 25 -55.5t70 -25.5q46 1 71 25.5z" />
    <glyph glyph-name="nine" unicode="9" horiz-adv-x="563" 
d="M386 529.5q52 -32.5 81.5 -96t29.5 -151.5q0 -89 -34.5 -154.5t-92.5 -99.5t-128 -34q-5 0 -47 3q-24 2 -31 2q-25 0 -32 -7h-8l-9 138h8q13 -16 39 -28t66 -12q69 0 106 44.5t43 118.5q-50 -50 -131 -50q-57 0 -97.5 22.5t-61.5 61t-21 84.5q0 47 20 90.5t65 72
t116 28.5q67 0 119 -32.5zM327.5 308.5q26.5 16.5 44.5 42.5q-9 53 -35 84t-71 31q-44 0 -66.5 -25t-22.5 -64q0 -35 24.5 -60t66.5 -25q33 0 59.5 16.5z" />
    <glyph glyph-name="colon" unicode=":" horiz-adv-x="214" 
d="M63 451q-17 16 -17 44t17 44t44 16t44 -16t17 -44t-17 -44t-44 -16t-44 16zM63 6.5q-17 16.5 -17 44.5t17 43.5t44 15.5t44 -15.5t17 -43.5t-17 -44.5t-44 -16.5t-44 16.5z" />
    <glyph glyph-name="semicolon" unicode=";" horiz-adv-x="221" 
d="M63 451q-17 16 -17 44t17 44t44 16t44 -16t17 -44t-17 -44t-44 -16t-44 16zM158 93q17 -19 17 -52q0 -36 -19.5 -68t-68.5 -32v22q27 5 36 28q-4 -1 -12 -1q-25 0 -40.5 16.5t-15.5 44.5q0 29 16 45t42 16q28 0 45 -19z" />
    <glyph glyph-name="less" unicode="&#x3c;" horiz-adv-x="480" 
d="M147 292l293 -117v-91l-400 159v97l400 159v-91z" />
    <glyph glyph-name="equal" unicode="=" horiz-adv-x="480" 
d="M440 353h-400v90h400v-90zM440 143h-400v90h400v-90z" />
    <glyph glyph-name="greater" unicode="&#x3e;" horiz-adv-x="480" 
d="M440 243l-400 -159v91l293 117l-293 116v91l400 -159v-97z" />
    <glyph glyph-name="question" unicode="?" horiz-adv-x="442" 
d="M152.5 222q-22.5 29 -22.5 76q0 50 20.5 84.5t61.5 79.5q33 35 49 60t16 56q0 79 -91 79q-39 0 -80.5 -14.5t-51.5 -31.5h-8l9 140h8q7 -8 18 -8q5 0 35.5 8.5t92.5 8.5q57 0 99.5 -21.5t64.5 -57t22 -76.5t-13.5 -74.5t-33 -57.5t-50.5 -56q-38 -39 -55.5 -65t-17.5 -60
q0 -16 10 -31.5t28 -23.5q-16 -44 -58 -44q-30 0 -52.5 29zM155.5 13q-16.5 16 -16.5 44q0 29 16.5 44.5t43.5 15.5t44 -16t17 -44t-17 -44t-44 -16t-43.5 16z" />
    <glyph glyph-name="at" unicode="@" horiz-adv-x="682" 
d="M499 539.5q68 -37.5 105.5 -105.5t37.5 -157q0 -84 -32.5 -136t-97.5 -52q-109 0 -124 90l-4 25l-91 -14q-2 -52 15 -69l-1 -8h-46l-37 1h-47v8q14 14 26.5 53.5t20.5 88.5l8 42q8 45 8 81q0 46 -15 61v8h212l40 -247q5 -32 16 -43.5t27 -11.5q34 0 51.5 33.5t17.5 89.5
q0 74 -31 130t-87 86.5t-130 30.5t-130 -30.5t-87 -86.5t-31 -130t31 -130t87 -87t130 -31q81 0 136 35l26 -47q-36 -21 -75 -31t-87 -10q-90 0 -158 37.5t-105.5 105.5t-37.5 158q0 89 37.5 157t105.5 105.5t158 37.5t158 -37.5zM355 382l-35 1l-19 -120v-1l72 12z" />
    <glyph glyph-name="A" unicode="A" horiz-adv-x="921" 
d="M854.5 698.5q-6.5 -39.5 -6.5 -90.5v-550q0 -51 6.5 -90.5t20.5 -53.5v-8h-161v3q9 8 9 45v158l-197 79l-33 -165q-23 -119 -92.5 -190.5t-170.5 -71.5q-52 0 -98 23.5t-74 68t-28 102.5q0 45 19.5 83t55.5 60t83 22q56 0 86 -30.5t30 -68.5q0 -33 -16 -56t-43 -23
q-12 0 -21.5 4.5t-13.5 11.5q11 2 18.5 11.5t7.5 21.5q0 16 -11 26t-31 10q-30 0 -47 -20.5t-17 -51.5q0 -37 24.5 -64t70.5 -27q62 0 98.5 46.5t55.5 141.5l110 555q11 57 11 89q0 39 -14 53v8h389v-8q-14 -14 -20.5 -53.5zM723 659h-105l-70 -355l175 -69v424z" />
    <glyph glyph-name="B" unicode="B" horiz-adv-x="987" 
d="M918 308q37 -58 37 -136q0 -74 -34 -135t-94 -96t-135 -35q-62 0 -117 22q3 -81 19 -108l-2 -8l-46 13l-85 25l-46 13l3 8q17 9 24.5 46t7.5 89l1 638l-109 -1q-93 0 -141.5 -38t-48.5 -104q0 -53 27.5 -82.5t64.5 -29.5q26 0 44 14t18 39q0 16 -9 26t-24 10
q-21 0 -28 -20q-5 4 -8.5 14t-3.5 19q0 27 18.5 42.5t48.5 15.5q41 0 68.5 -30.5t27.5 -80.5q0 -66 -46 -107.5t-115 -41.5q-55 0 -99.5 27t-70 75.5t-25.5 109.5q0 69 35.5 128t106 95t169.5 36h343q59 0 108 -24t78 -68.5t29 -103.5q0 -46 -25 -89.5t-70 -78.5
q67 -30 104 -88zM574 405q89 10 147.5 52.5t58.5 102.5q0 39 -24 61t-66 22h-116v-238zM758.5 44q32.5 21 52 58t19.5 82q0 56 -29.5 97t-80.5 60q-70 -30 -146 -37v-252q29 -14 59 -21.5t54 -7.5q39 0 71.5 21z" />
    <glyph glyph-name="C" unicode="C" horiz-adv-x="580" 
d="M179.5 -111.5q-86.5 49.5 -145 158.5t-58.5 276q0 158 52.5 258.5t133 144.5t169.5 44q78 0 135 -32.5t86 -85.5t29 -112q0 -51 -21.5 -94.5t-60 -69.5t-88.5 -26q-62 0 -103 35.5t-41 91.5q0 46 25.5 71.5t59.5 25.5q24 0 40 -12.5t16 -31.5q0 -9 -4 -18t-9 -13
q-2 9 -8.5 14t-15.5 5q-12 0 -19.5 -9t-7.5 -22q0 -21 16.5 -34t37.5 -13q30 0 54 27t24 70q0 55 -39.5 89t-99.5 34q-58 0 -112 -34.5t-89 -109.5t-35 -189q0 -116 36.5 -197.5t96.5 -122.5t130 -41q51 0 97.5 27t70.5 62h8v-190h-8q-8 9 -30 9q-11 0 -24 -4t-26 -9
q-26 -10 -48.5 -16t-53.5 -6q-84 0 -170.5 49.5z" />
    <glyph glyph-name="D" unicode="D" horiz-adv-x="1026" 
d="M797 705.5q81 -54.5 128.5 -157t47.5 -239.5t-47.5 -239.5t-128.5 -157.5t-178 -55h-198v8q14 14 20.5 53.5t6.5 90.5l1 635l-107 -1q-93 0 -141.5 -38t-48.5 -104q0 -53 27.5 -82.5t64.5 -29.5q26 0 44 14t18 39q0 16 -9 26t-24 10q-21 0 -28 -20q-5 4 -8.5 14t-3.5 19
q0 27 18.5 42.5t48.5 15.5q41 0 68.5 -30.5t27.5 -80.5q0 -66 -46 -107.5t-115 -41.5q-55 0 -99.5 27t-70 75.5t-25.5 109.5q0 69 35.5 128t106 95t169.5 36h268q97 0 178 -54.5zM736 13.5q51 39.5 79 115t28 180.5q0 104 -28 179.5t-79 115t-117 39.5h-46l-1 -669h47
q66 0 117 39.5z" />
    <glyph glyph-name="E" unicode="E" horiz-adv-x="830" 
d="M580 449l21 3q117 19 143 45h8v-47l-1 -78v-47h-8q-16 16 -66 16q-30 0 -77 -7l-20 -3v-368h95q51 0 91 6t55 19l8 -1l-4 -47l-9 -94h-392v8q14 14 20.5 53.5t6.5 90.5v646l-109 -1q-93 0 -141.5 -38t-48.5 -104q0 -53 27.5 -82.5t64.5 -29.5q26 0 44 14t18 39
q0 16 -9 26t-24 10q-21 0 -28 -20q-5 4 -8.5 14t-3.5 19q0 27 18.5 42.5t48.5 15.5q41 0 68.5 -30.5t27.5 -80.5q0 -66 -46 -107.5t-115 -41.5q-55 0 -99.5 27t-70 75.5t-25.5 109.5q0 69 35.5 128t106 95t169.5 36h473l9 -94l4 -47l-8 -1q-15 13 -55 19t-91 6h-103v-194z
" />
    <glyph glyph-name="F" unicode="F" horiz-adv-x="819" 
d="M585 409l21 3q117 19 143 45h8v-47l-1 -78v-47h-8q-16 16 -66 16q-30 0 -77 -7l-20 -3v-293q0 -51 6.5 -90.5t20.5 -53.5v-8h-183v8q14 14 20.5 53.5t6.5 90.5v646l-114 -1q-93 0 -141.5 -38t-48.5 -104q0 -53 27.5 -82.5t64.5 -29.5q26 0 44 14t18 39q0 16 -9 26t-24 10
q-21 0 -28 -20q-5 4 -8.5 14t-3.5 19q0 27 18.5 42.5t48.5 15.5q41 0 68.5 -30.5t27.5 -80.5q0 -66 -46 -107.5t-115 -41.5q-55 0 -99.5 27t-70 75.5t-25.5 109.5q0 69 35.5 128t106 95t169.5 36h478l9 -94l4 -47l-8 -1q-15 13 -55 19t-91 6h-103v-234z" />
    <glyph glyph-name="G" unicode="G" horiz-adv-x="719" 
d="M664.5 227.5q-6.5 -39.5 -6.5 -90.5v-256q0 -51 6.5 -90.5t20.5 -53.5v-8h-179v8q23 23 27 121q-42 -19 -91 -19q-79 0 -163.5 50t-142.5 159t-58 275q0 158 52.5 258.5t133 144.5t169.5 44q78 0 135 -32.5t86 -85.5t29 -112q0 -51 -21.5 -94.5t-60 -69.5t-88.5 -26
q-62 0 -103 35.5t-41 91.5q0 46 25.5 71.5t59.5 25.5q24 0 40 -12.5t16 -31.5q0 -9 -4 -18t-9 -13q-4 19 -24 19q-12 0 -19.5 -9t-7.5 -22q0 -21 16.5 -34t37.5 -13q30 0 54 27t24 70q0 55 -39.5 89t-99.5 34q-58 0 -112 -34.5t-89 -109.5t-35 -189q0 -116 35.5 -197.5
t92 -122.5t119.5 -41q48 0 83 22v149q0 51 -6.5 90.5t-20.5 53.5v8h179v-8q-14 -14 -20.5 -53.5z" />
    <glyph glyph-name="H" unicode="H" horiz-adv-x="1020" 
d="M950.5 698.5q-6.5 -39.5 -6.5 -90.5v-603q0 -51 6.5 -90.5t20.5 -53.5v-8h-179v8q14 14 20.5 53.5t6.5 90.5v317l-252 75v-399q0 -51 6.5 -90.5t20.5 -53.5v-8h-179v8q14 14 20.5 53.5t6.5 90.5v674q-24 4 -36 7q-54 12 -89 12q-89 0 -131 -42.5t-42 -110.5
q1 -50 28.5 -79.5t62.5 -29.5q27 0 43.5 14.5t16.5 38.5q1 17 -7.5 27t-23.5 10q-9 0 -16 -5.5t-11 -14.5q-5 5 -9 14.5t-4 20.5q0 24 20.5 38.5t51.5 14.5q37 0 64.5 -28.5t28.5 -80.5q0 -43 -21.5 -77t-58.5 -53t-80 -19q-56 0 -99.5 29.5t-67 77t-23.5 101.5
q0 71 31 127.5t91 89.5t144 33q28 0 57.5 -3.5t56.5 -8.5q44 -8 75 -11.5t72 -3.5h1v-249l252 -76v173q0 51 -6.5 90.5t-20.5 53.5v8h179v-8q-14 -14 -20.5 -53.5z" />
    <glyph glyph-name="I" unicode="I" horiz-adv-x="653" 
d="M582.5 -92.5q6.5 -39.5 20.5 -53.5v-8h-179v8q14 14 20.5 53.5t6.5 90.5v672q-23 3 -45 9q-56 12 -89 12q-89 0 -131 -42.5t-41 -110.5q0 -50 27.5 -79.5t62.5 -29.5q28 0 44.5 15t16.5 41q0 15 -8.5 24.5t-22.5 9.5q-9 0 -16.5 -5.5t-10.5 -14.5q-6 5 -10 14.5t-4 20.5
q0 24 20.5 38.5t51.5 14.5q37 0 65 -29t28 -80q0 -43 -21 -77t-58 -53t-81 -19q-56 0 -99 29.5t-66.5 77t-23.5 101.5q0 71 31 128t90.5 89.5t143.5 32.5q45 0 114 -13q8 -1 38 -6t60 -7t59 -1v-762q0 -51 6.5 -90.5z" />
    <glyph glyph-name="J" unicode="J" horiz-adv-x="593" 
d="M146.5 -212q-49.5 24 -80 70t-30.5 108q0 78 45 124.5t118 46.5q56 0 86.5 -30.5t30.5 -68.5q-1 -33 -16.5 -56.5t-42.5 -23.5q-13 0 -22.5 5t-13.5 12q12 2 19 11t7 22q0 15 -11 25t-32 10q-30 0 -45.5 -20t-15.5 -49q0 -39 29.5 -69t77.5 -30q66 0 105 43.5t40 142.5
l2 537q0 51 -6.5 90.5t-20.5 53.5v8h180v-8q-26 -26 -28 -144l-2 -551q0 -89 -36.5 -153t-97.5 -97t-135 -33q-55 0 -104.5 24z" />
    <glyph glyph-name="K" unicode="K" horiz-adv-x="914" 
d="M919 -93.5q17 -38.5 31 -52.5v-8h-184v8q11 11 11 38q0 39 -20 101l-117 376l-73 -97v-274q0 -51 6.5 -90.5t20.5 -53.5v-8h-179v8q14 14 20.5 53.5t6.5 90.5v674q-24 4 -36 7q-54 12 -89 12q-89 0 -131 -42.5t-42 -110.5q1 -50 28.5 -79.5t62.5 -29.5q27 0 43.5 14.5
t16.5 38.5q1 17 -7.5 27t-23.5 10q-9 0 -16 -5.5t-11 -14.5q-5 5 -9 14.5t-4 20.5q0 24 20.5 38.5t51.5 14.5q37 0 64.5 -28.5t28.5 -80.5q0 -43 -21.5 -77t-58.5 -53t-80 -19q-56 0 -99.5 29.5t-67 77t-23.5 101.5q0 71 31 127.5t91 89.5t144 33q28 0 57.5 -3.5t56.5 -8.5
q44 -8 75 -11.5t72 -3.5h1v-313l122 182q48 72 48 104q0 12 -7 19v8h211v-8q-34 -34 -100 -119l-105 -139l152 -501q14 -48 31 -86.5z" />
    <glyph glyph-name="L" unicode="L" horiz-adv-x="752" 
d="M792 -60l-9 -94h-369v8q14 14 20.5 53.5t6.5 90.5v674q-26 5 -35 7q-52 12 -89 12q-89 0 -131 -42.5t-42 -110.5q1 -50 28.5 -79.5t62.5 -29.5q27 0 43.5 14.5t16.5 38.5q1 17 -7.5 27t-23.5 10q-9 0 -16 -5.5t-11 -14.5q-5 5 -9 14.5t-4 20.5q0 24 20.5 38.5t51.5 14.5
q37 0 64.5 -28.5t28.5 -80.5q0 -43 -21.5 -77t-58.5 -53t-80 -19q-56 0 -99.5 29.5t-67 77t-23.5 101.5q0 71 31 127.5t91 89.5t144 33q28 0 57.5 -3.5t56.5 -8.5q44 -8 75 -11.5t72 -3.5v-797h76q51 0 91 6t55 19l8 -1z" />
    <glyph glyph-name="M" unicode="M" horiz-adv-x="1167" 
d="M1120.5 -92q9.5 -40 23.5 -54v-8h-182v8q21 21 21 103q0 27 -1 41l-30 525l-182 -488h-32l-181 478l-36 -515q-2 -30 -2 -45q0 -78 21 -99v-8h-181v8q27 27 36 144l56 672q-14 2 -42 8q-21 5 -45 9t-47 4q-89 0 -131 -42.5t-42 -110.5q1 -50 28.5 -79.5t62.5 -29.5
q27 0 43.5 14.5t16.5 38.5q1 17 -7.5 27t-23.5 10q-9 0 -16 -5.5t-11 -14.5q-5 5 -9 14.5t-4 20.5q0 24 20.5 38.5t51.5 14.5q37 0 64.5 -28.5t28.5 -80.5q0 -43 -21.5 -77t-58.5 -53t-80 -19q-56 0 -99.5 29.5t-67 77t-23.5 101.5q0 71 31 127.5t91 89.5t144 33
q28 0 57.5 -3.5t56.5 -8.5q44 -8 75 -11.5t72 -3.5h34l162 -418l161 418h156v-8q-20 -20 -20 -96q0 -16 2 -48l47 -610q3 -50 12.5 -90z" />
    <glyph glyph-name="N" unicode="N" horiz-adv-x="1008" 
d="M938.5 698.5q-6.5 -39.5 -6.5 -90.5v-610q0 -51 6.5 -90.5t20.5 -53.5v-8h-169v8q14 14 20.5 53.5t6.5 90.5v159l-243 361v-520q0 -51 6.5 -90.5t20.5 -53.5v-8h-168v8q14 14 20.5 53.5t6.5 90.5v671q-16 2 -53 10q-54 12 -90 12q-89 0 -131 -42.5t-42 -110.5
q1 -50 28.5 -79.5t62.5 -29.5q27 0 43.5 14.5t16.5 38.5q1 17 -7.5 27t-23.5 10q-9 0 -16 -5.5t-11 -14.5q-5 5 -9 14.5t-4 20.5q0 24 20.5 38.5t51.5 14.5q37 0 64.5 -28.5t28.5 -80.5q0 -43 -21.5 -77t-58.5 -53t-80 -19q-56 0 -99.5 29.5t-67 77t-23.5 101.5
q0 71 31 127.5t91 89.5t144 33q28 0 57.5 -3.5t56.5 -8.5q44 -8 75 -11.5t72 -3.5h1l250 -372v220q0 51 -6.5 90.5t-20.5 53.5v8h169v-8q-14 -14 -20.5 -53.5z" />
    <glyph glyph-name="O" unicode="O" horiz-adv-x="752" 
d="M698.5 425.5q20.5 -59.5 20.5 -145.5q0 -135 -47.5 -235t-124.5 -153t-165 -53q-90 0 -170 52t-129.5 157.5t-49.5 258.5q0 149 48 253.5t129 157t177 52.5q78 0 135.5 -32.5t87 -85t29.5 -110.5q0 -11 -2 -29q41 -28 61.5 -87.5zM509 -1.5q49 49.5 70.5 127t21.5 166.5
q0 63 -12 116q-25 -28 -59 -43t-73 -15q-61 0 -101.5 36t-40.5 92q0 45 26 70.5t59 25.5q23 0 39.5 -12.5t16.5 -31.5q0 -9 -4 -18t-9 -13q-2 9 -8.5 14t-15.5 5q-12 0 -19.5 -9t-7.5 -22q0 -21 16.5 -34t37.5 -13q30 0 54 27t24 70q0 55 -40.5 89t-105.5 34
q-112 0 -165.5 -100t-53.5 -253t54 -255.5t169 -102.5q78 0 127 49.5z" />
    <glyph glyph-name="P" unicode="P" horiz-adv-x="923" 
d="M859.5 358.5q-45.5 -75.5 -122.5 -126t-166 -63.5v-171q0 -51 6.5 -90.5t20.5 -53.5v-8h-179v8q14 14 20.5 53.5t6.5 90.5v646l-104 -1q-93 0 -141.5 -38t-48.5 -104q0 -53 27.5 -82.5t64.5 -29.5q26 0 44 14t18 39q0 16 -9 26t-24 10q-21 0 -28 -20q-5 4 -8.5 14
t-3.5 19q0 27 18.5 42.5t48.5 15.5q41 0 68.5 -30.5t27.5 -80.5q0 -66 -46 -107.5t-115 -41.5q-55 0 -99.5 27t-70 75.5t-25.5 109.5q0 69 35.5 128t106 95t169.5 36h300q75 0 132.5 -28.5t89.5 -83t32 -128.5q0 -86 -45.5 -161.5zM571 288q89 19 147.5 79t58.5 143
q0 72 -39.5 102.5t-117.5 30.5h-49v-355z" />
    <glyph glyph-name="Q" unicode="Q" horiz-adv-x="752" 
d="M685 -118q4 0 16 2v-133q-61 0 -105.5 31.5t-84.5 87.5q-64 -31 -129 -31q-90 0 -170 52t-129.5 157.5t-49.5 258.5q0 150 48 254.5t129 156.5t178 52q77 0 134 -32.5t87 -84.5t30 -110q0 -10 -2 -30q41 -28 61.5 -87.5t20.5 -145.5q0 -111 -32.5 -199t-89.5 -147
q45 -52 88 -52zM181 129q20 30 53 48.5t78 18.5q49 0 88.5 -23.5t68.5 -58.5t64 -88q35 48 51.5 118.5t16.5 147.5q0 66 -13 116q-24 -28 -58 -43t-73 -15q-61 0 -101.5 36t-40.5 92q0 45 26 70.5t59 25.5q23 0 39.5 -12.5t16.5 -31.5q0 -9 -4 -18t-9 -13q-2 9 -8.5 14
t-15.5 5q-12 0 -19.5 -9t-7.5 -22q0 -21 16.5 -34t37.5 -13q30 0 54 27t24 70q0 55 -40.5 89t-105.5 34q-112 0 -165.5 -100.5t-53.5 -253.5q0 -98 22 -177zM452 -38q-38 61 -71.5 92.5t-77.5 31.5q-28 0 -49.5 -13t-33.5 -33q57 -91 162 -91q40 0 70 13z" />
    <glyph glyph-name="R" unicode="R" horiz-adv-x="930" 
d="M899.5 -93.5q17.5 -38.5 31.5 -52.5v-8h-188v8q11 11 11 39q0 36 -19 100l-77 254q-47 -18 -88 -26v-223q0 -51 6.5 -90.5t20.5 -53.5v-8h-179v8q14 14 20.5 53.5t6.5 90.5v646l-103 -1q-93 0 -141.5 -38t-48.5 -104q0 -53 27.5 -82.5t64.5 -29.5q26 0 44 14t18 39
q0 16 -9 26t-24 10q-21 0 -28 -20q-5 4 -8.5 14t-3.5 19q0 27 18.5 42.5t48.5 15.5q41 0 68.5 -30.5t27.5 -80.5q0 -66 -46 -107.5t-115 -41.5q-55 0 -99.5 27t-70 75.5t-25.5 109.5q0 69 35.5 128t106 95t169.5 36h292q115 0 185 -56.5t70 -162.5q0 -69 -35.5 -129
t-96.5 -105l101 -315q15 -47 32.5 -85.5zM713.5 413q55.5 46 55.5 117q0 60 -39.5 86.5t-117.5 26.5h-42v-302q88 26 143.5 72z" />
    <glyph glyph-name="S" unicode="S" horiz-adv-x="623" 
d="M601 120q0 -79 -34 -152.5t-101.5 -120.5t-164.5 -47q-89 0 -152.5 35.5t-96 93t-32.5 124.5q0 58 24.5 105t66.5 73.5t93 26.5q41 0 76.5 -18t56.5 -49.5t21 -71.5q0 -45 -26 -75t-65 -30q-28 0 -48 13.5t-20 36.5q0 15 14 31q8 -21 28 -21q14 0 24 12t10 29
q0 23 -17.5 37.5t-43.5 14.5q-37 0 -64.5 -28t-27.5 -79q0 -44 23 -79t62 -55t87 -20q56 0 97.5 28t63 73.5t21.5 97.5q0 77 -43 131t-137 105q-56 30 -93 58.5t-60.5 69.5t-23.5 97q0 58 27.5 104.5t78.5 73t120 26.5q54 0 99 -12t53 -13h3q12 0 19 8h8l3 -170h-8
q-14 24 -58 47t-111 23q-48 0 -76.5 -20.5t-28.5 -59.5q0 -32 20 -57t47.5 -43t83.5 -48q202 -115 202 -305z" />
    <glyph glyph-name="T" unicode="T" horiz-adv-x="677" 
d="M603 -156v-5h-161v5q18 19 18 99v721q-8 1 -24 5q-8 1 -47 8t-72 7q-90 0 -131.5 -39.5t-40.5 -106.5q0 -50 27.5 -79.5t62.5 -29.5q28 0 44.5 15t16.5 41q0 15 -8.5 24.5t-22.5 9.5q-9 0 -16.5 -5.5t-10.5 -14.5q-6 5 -10 14.5t-4 20.5q0 24 20.5 38.5t51.5 14.5
q37 0 65 -29t28 -80q0 -43 -21 -77t-58 -53t-81 -19q-56 0 -99 29.5t-66.5 77t-23.5 101.5q0 71 31 128t90.5 89.5t143.5 32.5q38 0 126 -12q98 -14 154 -14q64 0 111.5 17.5t62.5 47.5l7 3l53 -123q-35 -26 -98.5 -40.5t-135.5 -15.5v-707q0 -80 18 -99z" />
    <glyph glyph-name="U" unicode="U" horiz-adv-x="959" 
d="M902.5 698.5q-6.5 -39.5 -6.5 -90.5v-561q0 -64 -33 -111.5t-84.5 -73t-106.5 -25.5q-49 0 -102 20.5t-90.5 67.5t-37.5 122v625q-24 4 -36 7q-54 12 -89 12q-89 0 -131 -42.5t-42 -110.5q1 -50 28.5 -79.5t62.5 -29.5q27 0 43.5 14.5t16.5 38.5q1 17 -7.5 27t-23.5 10
q-9 0 -16 -5.5t-11 -14.5q-5 5 -9 14.5t-4 20.5q0 24 20.5 38.5t51.5 14.5q37 0 64.5 -28.5t28.5 -80.5q0 -43 -21.5 -77t-58.5 -53t-80 -19q-56 0 -99.5 29.5t-67 77t-23.5 101.5q0 71 31 127.5t91 89.5t144 33q28 0 57.5 -3.5t56.5 -8.5q44 -8 75 -11.5t72 -3.5h1v-700
q0 -53 32.5 -79.5t72.5 -26.5t73 26.5t33 79.5v548q0 51 -6.5 90.5t-20.5 53.5v8h172v-8q-14 -14 -20.5 -53.5z" />
    <glyph glyph-name="V" unicode="V" horiz-adv-x="951" 
d="M947.5 698.5q-13.5 -39.5 -23.5 -88.5l-152 -764h-130l-181 823q-21 0 -65 10q-54 12 -88 12q-89 0 -131 -42.5t-42 -110.5q1 -50 28.5 -79.5t62.5 -29.5q27 0 43.5 14.5t16.5 38.5q1 17 -7.5 27t-23.5 10q-9 0 -16 -5.5t-11 -14.5q-5 5 -9 14.5t-4 20.5q0 24 20.5 38.5
t51.5 14.5q37 0 64.5 -28.5t28.5 -80.5q0 -43 -21.5 -77t-58.5 -53t-80 -19q-56 0 -99.5 29.5t-67 77t-23.5 101.5q0 71 31 127.5t91 89.5t144 33q28 0 57.5 -3.5t56.5 -8.5q44 -8 75 -11.5t72 -3.5h12l140 -640l97 490q11 57 11 89q0 39 -14 53v8h172v-8
q-14 -14 -27.5 -53.5z" />
    <glyph glyph-name="W" unicode="W" horiz-adv-x="1275" 
d="M1270 699q-13 -39 -23 -89l-148 -762l1 -2h-128l-116 531l-93 -531h-129l-180 823q-16 2 -55 10q-54 12 -91 12q-89 0 -131 -42.5t-42 -110.5q1 -50 28.5 -79.5t62.5 -29.5q27 0 43.5 14.5t16.5 38.5q1 17 -7.5 27t-23.5 10q-9 0 -16 -5.5t-11 -14.5q-5 5 -9 14.5
t-4 20.5q0 24 20.5 38.5t51.5 14.5q37 0 64.5 -28.5t28.5 -80.5q0 -43 -21.5 -77t-58.5 -53t-80 -19q-56 0 -99.5 29.5t-67 77t-23.5 101.5q0 71 31 127.5t91 89.5t144 33q28 0 57.5 -3.5t56.5 -8.5q44 -8 75 -11.5t72 -3.5h5l138 -634l95 528q-21 77 -42 98v8h181v-8
q-13 -13 -13 -51q0 -35 12 -90l105 -482l86 481q9 54 9 85q0 43 -14 57v8h178v-8q-14 -14 -27 -53z" />
    <glyph glyph-name="X" unicode="X" horiz-adv-x="930" 
d="M917 -84.5q20 -37.5 34 -51.5v-8h-185v8q9 9 9 30q0 37 -27 105l-78 196l-78 -196q-27 -68 -27 -105q0 -21 9 -30v-8h-176v8q14 14 34 51.5t38 83.5l129 326l-139 344q-25 1 -62 10q-54 12 -90 12q-89 0 -131 -42.5t-42 -110.5q1 -50 28.5 -79.5t62.5 -29.5
q27 0 43.5 14.5t16.5 38.5q1 17 -7.5 27t-23.5 10q-9 0 -16 -5.5t-11 -14.5q-5 5 -9 14.5t-4 20.5q0 24 20.5 38.5t51.5 14.5q37 0 64.5 -28.5t28.5 -80.5q0 -43 -21.5 -77t-58.5 -53t-80 -19q-56 0 -99.5 29.5t-67 77t-23.5 101.5q0 71 31 127.5t91 89.5t144 33
q28 0 57.5 -3.5t56.5 -8.5q44 -8 75 -11.5t72 -3.5l-1 -1l123 -302l64 160q28 68 28 106q0 20 -9 29v8h178v-8q-14 -14 -34 -51.5t-38 -83.5l-118 -292l129 -326q18 -46 38 -83.5z" />
    <glyph glyph-name="Y" unicode="Y" horiz-adv-x="879" 
d="M907 700.5q-20 -37.5 -38 -83.5l-129 -318v-291q0 -51 6.5 -90.5t20.5 -53.5v-8h-179v8q14 14 20.5 53.5t6.5 90.5v294l-155 367q-25 1 -62 10q-54 12 -90 12q-89 0 -131 -42.5t-42 -110.5q1 -50 28.5 -79.5t62.5 -29.5q27 0 43.5 14.5t16.5 38.5q1 17 -7.5 27t-23.5 10
q-9 0 -16 -5.5t-11 -14.5q-5 5 -9 14.5t-4 20.5q0 24 20.5 38.5t51.5 14.5q37 0 64.5 -28.5t28.5 -80.5q0 -43 -21.5 -77t-58.5 -53t-80 -19q-56 0 -99.5 29.5t-67 77t-23.5 101.5q0 71 31 127.5t91 89.5t144 33q28 0 57.5 -3.5t56.5 -8.5q44 -8 75 -11.5t72 -3.5h3
l121 -296l63 153q28 68 28 106q0 20 -9 29v8h178v-8q-14 -14 -34 -51.5z" />
    <glyph glyph-name="Z" unicode="Z" horiz-adv-x="540" 
d="M545.5 108q31.5 -36 31.5 -90q0 -47 -22 -88.5t-64 -67t-99 -25.5q-32 0 -56 7t-52 20q-21 10 -35.5 14.5t-29.5 4.5q-23 0 -42.5 -10.5t-28.5 -26.5l-74 46l282 751h-106q-51 0 -91 -6t-55 -19l-8 1l4 47l9 94h398v-67l-262 -698q15 -3 33 -10t24 -9q25 -11 44 -16.5
t39 -5.5q37 0 59 19.5t22 51.5q1 19 -9 30.5t-25 11.5q-13 0 -22.5 -7.5t-11.5 -19.5q-7 4 -11.5 12.5t-4.5 19.5q0 33 24 52.5t59 19.5q49 0 80.5 -36z" />
    <glyph glyph-name="bracketleft" unicode="[" horiz-adv-x="320" 
d="M137 -33h135v-88h-226l2 881h225v-89l-134 1z" />
    <glyph glyph-name="backslash" unicode="\" horiz-adv-x="474" 
d="M427 -94h-79l-302 854h79z" />
    <glyph glyph-name="bracketright" unicode="]" horiz-adv-x="320" 
d="M47 -121v88h136l-2 705l-135 -1v89h225l2 -881h-226z" />
    <glyph glyph-name="asciicircum" unicode="^" horiz-adv-x="440" 
d="M220 667l-94 -200h-86l137 292l-1 1h87v-1l137 -292h-86z" />
    <glyph glyph-name="underscore" unicode="_" horiz-adv-x="493" 
d="M446 -88h-400v88h400v-88z" />
    <glyph glyph-name="grave" unicode="`" horiz-adv-x="249" 
d="M209 612h-76l-93 148h107z" />
    <glyph glyph-name="a" unicode="a" horiz-adv-x="548" 
d="M489 60q12 -39 26 -53v-8h-47l-80 1h-47v8q16 16 16 64q0 28 -7 75l-175 -28q-4 -38 -4 -53q0 -44 15 -59v-8h-47l-59 1h-47v8q14 14 26.5 53.5t20.5 88.5l42 250q8 45 8 81q0 46 -15 61v8h290l64 -400q8 -51 20 -90zM190 214l146 23l-35 220h-72z" />
    <glyph glyph-name="b" unicode="b" horiz-adv-x="547" 
d="M478.5 267q26.5 -36 26.5 -88q0 -79 -54 -129t-152 -50h-243v8q26 26 28 144v246q1 51 -5.5 90.5t-20.5 53.5v8h272q66 0 104 -32t38 -89q0 -65 -59 -111q39 -15 65.5 -51zM202 324q70 10 111 32t41 56q0 20 -13.5 31t-46.5 11h-91zM358.5 123.5q30.5 27.5 30.5 69.5
q0 25 -15.5 47t-44.5 32q-57 -22 -127 -30l-1 -146h72q55 0 85.5 27.5z" />
    <glyph glyph-name="c" unicode="c" horiz-adv-x="488" 
d="M185.5 24q-61.5 32 -101 96.5t-39.5 155.5q0 92 39.5 156t101.5 96t128 32q22 0 64 -3q18 -2 23 -2q14 0 20 7h8l6 -138h-8q-28 40 -102 40t-117.5 -50.5t-43.5 -137.5q0 -86 43 -137t115 -51q46 0 68.5 12.5t36.5 31.5l8 1l-6 -137h-8q-6 7 -18 7q-5 0 -25 -4
q-40 -7 -66 -7q-65 0 -126.5 32z" />
    <glyph glyph-name="d" unicode="d" horiz-adv-x="564" 
d="M390.5 520q57.5 -30 93 -92t35.5 -152q0 -91 -35.5 -153t-93.5 -92.5t-124 -30.5h-210v8q26 26 28 144v246q1 51 -5.5 90.5t-20.5 53.5v8h209q66 0 123.5 -30zM365 141.5q35 46.5 35 134.5q0 178 -141 178h-56l-2 -357l60 -1q69 -1 104 45.5z" />
    <glyph glyph-name="e" unicode="e" horiz-adv-x="477" 
d="M371 102q35 6 48 19l7 -1l-4 -46l-7 -74h-359v8q26 26 28 144v246q1 51 -5.5 90.5t-20.5 53.5v8h358l6 -74l4 -47h-6q-13 13 -45 19t-72 6h-100l-1 -127l30 5q39 6 70.5 18t42.5 26h6v-47l-1 -58v-47h-7q-12 16 -54 16q-28 0 -58 -6l-29 -5l-1 -133h92q43 0 78 6z" />
    <glyph glyph-name="f" unicode="f" horiz-adv-x="466" 
d="M202 304l13 2q49 8 88.5 20.5t53.5 26.5h8v-47l-1 -58v-47h-8q-15 15 -61 15q-36 0 -81 -8l-12 -2v-54q-1 -51 5.5 -90.5t20.5 -53.5v-8h-172v8q26 26 28 144v246q1 51 -5.5 90.5t-20.5 53.5v8h358l6 -73l4 -47l-8 -1q-16 13 -55.5 19t-90.5 6h-69z" />
    <glyph glyph-name="g" unicode="g" horiz-adv-x="541" 
d="M465 259.5q-7 -39.5 -7 -90.5l-1 -123q-48 -54 -147 -54q-67 0 -127.5 28.5t-99 92.5t-38.5 164q0 94 39.5 157.5t101.5 94.5t130 31q7 0 49 -3q20 -2 27 -2q22 0 29 7h8l6 -139h-8q-28 40 -102 40q-75 0 -118.5 -47.5t-42.5 -138.5q0 -97 38.5 -143t102.5 -46q26 0 45 6
l1 75q0 118 -26 144v8h161v-8q-14 -14 -21 -53.5z" />
    <glyph glyph-name="h" unicode="h" horiz-adv-x="579" 
d="M500.5 61.5q6.5 -39.5 20.5 -53.5v-8h-172v8q26 26 28 144v128l-175 -25v-103q-1 -51 5.5 -90.5t20.5 -53.5v-8h-172v8q26 26 28 144v246q1 51 -5.5 90.5t-20.5 53.5v8h172v-8q-26 -26 -28 -144v-47l175 25v22q1 51 -5.5 90.5t-20.5 53.5v8h172v-8q-26 -26 -28 -144v-246
q-1 -51 5.5 -90.5z" />
    <glyph glyph-name="i" unicode="i" horiz-adv-x="286" 
d="M207.5 60.5q6.5 -39.5 20.5 -53.5v-8h-47l-78 1h-47v8q26 26 28 144v246q1 51 -5.5 90.5t-20.5 53.5v8h172v-8q-26 -26 -28 -144v-247q-1 -51 5.5 -90.5z" />
    <glyph glyph-name="j" unicode="j" horiz-adv-x="355" 
d="M28 7l-8 112h8q5 -9 21.5 -16t35.5 -7q35 0 57.5 23.5t22.5 65.5l-1 213q0 51 -6.5 90.5t-20.5 53.5v8h172v-8q-14 -14 -20.5 -53.5t-6.5 -90.5l1 -217q0 -65 -31 -105.5t-76.5 -58t-90.5 -17.5q-33 0 -57 7z" />
    <glyph glyph-name="k" unicode="k" horiz-adv-x="556" 
d="M411 428l-40 -46l78 -236q15 -46 33 -85t32 -53v-8h-180v8q11 11 11 36q0 39 -22 102l-45 131l-76 -86v-39q-1 -51 5.5 -90.5t20.5 -53.5v-8h-172v8q26 26 28 144v246q1 51 -5.5 90.5t-20.5 53.5v8h172v-8q-26 -26 -28 -144v-71l88 101q59 68 59 98q0 10 -6 16v8h175v-8
q-59 -59 -107 -114z" />
    <glyph glyph-name="l" unicode="l" horiz-adv-x="464" 
d="M409 72l-7 -72h-346v8q26 26 28 144v246q1 51 -5.5 90.5t-20.5 53.5v8h172v-8q-26 -26 -28 -144l-1 -302h58q51 0 91 6.5t55 19.5h8z" />
    <glyph glyph-name="m" unicode="m" horiz-adv-x="672" 
d="M594.5 60.5q6.5 -39.5 20.5 -53.5v-8h-47l-79 1h-47v8q26 26 28 144l1 203l-145 -248l-144 243v-199q-1 -51 5.5 -90.5t20.5 -53.5v-8h-47l-58 1h-47v8q26 26 28 144v246q1 51 -5.5 90.5t-20.5 53.5v8h126l143 -255l144 253v2h146v-8q-26 -26 -28 -144v-247
q-1 -51 5.5 -90.5z" />
    <glyph glyph-name="n" unicode="n" horiz-adv-x="548" 
d="M470.5 60.5q6.5 -39.5 20.5 -53.5v-8h-47l-57 1h-47v8q22 22 27 111l-185 241l-1 -209q-1 -51 5.5 -90.5t20.5 -53.5v-8h-47l-57 1h-47v8q26 26 28 144v246q1 51 -5.5 90.5t-20.5 53.5v8h124l186 -245v93q1 51 -5.5 90.5t-20.5 53.5v8h151v-8q-26 -26 -28 -144v-247
q-1 -51 5.5 -90.5z" />
    <glyph glyph-name="o" unicode="o" horiz-adv-x="566" 
d="M489.5 123q-31.5 -64 -85.5 -97.5t-121 -33.5q-69 0 -123 34.5t-84.5 99t-30.5 150.5q0 89 31.5 153t85.5 97.5t121 33.5q70 0 124 -34.5t84 -99t30 -150.5q0 -89 -31.5 -153zM373.5 137.5q29.5 49.5 29.5 138.5t-29.5 138.5t-90.5 49.5t-90.5 -49.5t-29.5 -138.5
t29.5 -138.5t90.5 -49.5t90.5 49.5z" />
    <glyph glyph-name="p" unicode="p" horiz-adv-x="521" 
d="M207.5 61.5q6.5 -39.5 20.5 -53.5v-8h-172v8q26 26 28 144v246q1 51 -5.5 90.5t-20.5 53.5v8h252q53 0 92.5 -21.5t61 -57.5t21.5 -78q0 -57 -39 -108.5t-104 -82t-140 -29.5v-21q-1 -51 5.5 -90.5zM202 269q50 -1 86.5 17.5t54.5 47.5t18 59q0 61 -86 61h-72z" />
    <glyph glyph-name="q" unicode="q" horiz-adv-x="566" 
d="M480 3h1v-108q-54 0 -88 27t-57 75q-28 -5 -53 -5q-69 0 -123 33.5t-84.5 97.5t-30.5 153q0 92 31 156t85 96t122 32q71 0 124.5 -33.5t83.5 -97.5t30 -153q0 -85 -27 -146.5t-75 -95.5q19 -30 42 -39l6 -1q10 0 13 9zM192.5 414.5q-29.5 -49.5 -29.5 -138.5q0 -29 3 -53
q30 24 74 24q46 0 76 -30.5t55 -83.5q32 48 32 143q0 89 -29.5 138.5t-90.5 49.5t-90.5 -49.5zM283 88q12 0 17 1q-14 34 -28.5 52t-37.5 18q-25 0 -43 -20q31 -51 92 -51z" />
    <glyph glyph-name="r" unicode="r" horiz-adv-x="544" 
d="M462 60.5q20 -37.5 35 -52.5v-8h-179v8q9 9 9 30q0 39 -28 105l-17 42q-43 -10 -80 -9v-24q-1 -51 5.5 -90.5t20.5 -53.5v-8h-172v8q26 26 28 144v246q1 51 -5.5 90.5t-20.5 53.5v8h252q53 0 92.5 -21t60.5 -56.5t21 -77.5q0 -45 -26 -88.5t-71 -74.5l36 -89
q19 -45 39 -82.5zM289 290.5q36 16.5 54 44t18 58.5q0 30 -18.5 45.5t-59.5 15.5h-80l-1 -178q51 -2 87 14.5z" />
    <glyph glyph-name="s" unicode="s" horiz-adv-x="446" 
d="M108 4q-24 6 -27 6q-11 0 -18 -10h-8l-6 157h9q5 -12 24 -29t48 -29.5t64 -12.5q45 0 70 22.5t25 54.5q0 30 -21.5 46t-68.5 34l-24 9q-124 51 -124 156q0 69 53 110.5t152 41.5q23 0 44 -2.5t26 -3.5q12 -3 20 -3h4q11 0 18 10h8l7 -144h-8q-11 18 -47.5 32.5
t-75.5 14.5q-44 0 -63.5 -15.5t-19.5 -38.5q0 -26 21.5 -40.5t72.5 -33.5q141 -48 141 -164q0 -54 -27.5 -95.5t-74.5 -64t-105 -22.5q-40 0 -89 14z" />
    <glyph glyph-name="t" unicode="t" horiz-adv-x="449" 
d="M290.5 60.5q6.5 -39.5 20.5 -53.5v-8h-47l-78 1h-47v8q26 26 28 144l1 302q-45 -1 -80.5 -7.5t-49.5 -17.5l-8 1l4 47l7 74l245 -1l123 -1l6 -72l4 -47l-8 -1q-27 21 -125 25l-1 -303q-1 -51 5.5 -90.5z" />
    <glyph glyph-name="u" unicode="u" horiz-adv-x="542" 
d="M364.5 488.5q-6.5 39.5 -20.5 53.5v8h152v-8q-14 -14 -20.5 -53.5t-6.5 -90.5v-222q0 -63 -29 -102.5t-73 -56.5t-92 -17q-47 0 -94 17.5t-78.5 57t-31.5 101.5l1 222q1 51 -5.5 90.5t-20.5 53.5v8h172v-8q-26 -26 -28 -144l-1 -219q0 -44 27.5 -63.5t65.5 -19.5t63.5 19
t25.5 63v220q0 51 -6.5 90.5z" />
    <glyph glyph-name="v" unicode="v" horiz-adv-x="550" 
d="M486.5 489q-16.5 -39 -30.5 -86l-119 -404h-122l-120 404q-15 48 -31.5 86.5t-30.5 52.5v8h178v-8q-11 -11 -11 -40q0 -34 18 -99l69 -233l67 233q18 57 18 98q0 30 -11 41v8h156v-8q-14 -14 -30.5 -53z" />
    <glyph glyph-name="w" unicode="w" horiz-adv-x="806" 
d="M742.5 489q-16.5 -39 -30.5 -86l-119 -403h-108l-83 287l-80 -287h-113l-116 403q-14 48 -30 86.5t-30 52.5v8h176v-8q-11 -11 -11 -40q0 -34 18 -99l59 -199l75 258q-22 61 -41 80v8h178v-8q-11 -11 -11 -41q0 -38 17 -98l58 -206l60 206q18 57 18 98q0 30 -11 41v8h155
v-8q-14 -14 -30.5 -53z" />
    <glyph glyph-name="x" unicode="x" horiz-adv-x="529" 
d="M452 490.5q-24 -36.5 -47 -77.5l-76 -140l76 -137q22 -41 46 -77.5t39 -51.5v-8h-189v8q8 8 8 23q0 33 -40 106l-25 45l-25 -45q-40 -73 -40 -106q0 -15 8 -23v-8h-158v8q15 15 39 51.5t46 77.5l77 141l-76 136q-23 42 -47 78t-39 51l1 8h47l97 -1h47v-8q-8 -8 -8 -23
q0 -32 39 -106l24 -43l23 43q39 69 39 106q0 15 -8 23v8h47l66 1h47v-8q-14 -15 -38 -51.5z" />
    <glyph glyph-name="y" unicode="y" horiz-adv-x="516" 
d="M487 547q-8 -7 -26 -41l-137 -273v-81q-1 -51 5.5 -90.5t20.5 -53.5v-8h-47l-85 1h-47v8q26 26 28 144v85l-93 174q-23 43 -46.5 79t-38.5 51v8h47l98 -1h47v-8q-9 -9 -9 -26q0 -36 34 -106l36 -76l34 75q32 69 32 105q0 19 -9 28v8h47l94 1h15v-3z" />
    <glyph glyph-name="z" unicode="z" horiz-adv-x="451" 
d="M399 74l-7 -74h-344v96l217 358h-65q-51 0 -90.5 -6t-55.5 -19h-8l4 47l5 74h345v-96l-212 -358h91q41 0 73 6t45 19h6z" />
    <glyph glyph-name="braceleft" unicode="{" horiz-adv-x="349" 
d="M194.5 -87.5q-42.5 12.5 -68 51t-25.5 112.5q-1 43 5 92q3 26 3 46q0 30 -18 52t-45 22v84q27 0 45 22t18 52q0 18 -4 60q-4 50 -4 85q0 71 25.5 108t68 49t107.5 12v-84q-56 0 -83.5 -15.5t-27.5 -62.5q0 -20 4 -70q5 -42 5 -73q0 -47 -16.5 -80t-53.5 -42v-6
q36 -9 52.5 -40t17.5 -76q0 -16 -4 -64q-1 -10 -3 -37t-2 -48q0 -47 27.5 -62.5t83.5 -15.5v-84q-65 0 -107.5 12.5z" />
    <glyph glyph-name="bar" unicode="|" horiz-adv-x="162" 
d="M122 -94h-82v854h82v-854z" />
    <glyph glyph-name="braceright" unicode="}" horiz-adv-x="349" 
d="M130.5 -0.5q27.5 15.5 27.5 62.5q0 21 -2 46t-3 34q-4 46 -4 63q0 48 16.5 80.5t53.5 41.5v6q-37 9 -53.5 42t-16.5 80q0 31 5 73q4 50 4 70q0 47 -27.5 62.5t-83.5 15.5l-1 84q66 0 108.5 -12t68 -49t25.5 -108q0 -22 -5 -85q-4 -42 -4 -60q0 -30 18 -52t45 -22v-84
q-27 0 -45 -22t-18 -52q0 -12 4 -46q5 -55 5 -83q0 -78 -25 -118.5t-67.5 -53.5t-109.5 -13l1 84q56 0 83.5 15.5z" />
    <glyph glyph-name="asciitilde" unicode="~" horiz-adv-x="524" 
d="M449 247q-37 -38 -94 -38q-38 0 -64.5 11t-57.5 32q-21 14 -35 21t-30 7q-25 0 -34.5 -15t-9.5 -48h-84q0 74 36.5 110t91.5 36q32 0 55.5 -10t54.5 -30q23 -15 39 -22.5t34 -7.5q27 0 38 14.5t11 49.5h84q2 -72 -35 -110z" />
    <glyph glyph-name="exclamdown" unicode="&#xa1;" horiz-adv-x="230" 
d="M186 566.5q17 -16.5 17 -44.5t-17 -43.5t-44 -15.5t-43.5 15.5t-16.5 43.5t16.5 44.5t43.5 16.5t44 -16.5zM202 -35q8 -119 35 -142l1 -8l-47 -2h-98l-47 2l1 8q27 23 35 142l25 423l71 -1z" />
    <glyph glyph-name="cent" unicode="&#xa2;" horiz-adv-x="447" 
d="M385.5 100.5q22.5 12.5 36.5 31.5l8 1l-6 -137h-8q-6 7 -18 7q-4 0 -24 -4q-35 -5 -47 -6v-76h-82v83q-55 13 -101.5 48.5t-75 93t-28.5 134.5q0 80 30 139t79.5 93.5t107.5 46.5v100h79v-96l39 -3l21 -1q14 0 20 7h8l6 -138h-8q-28 40 -102 40t-117.5 -50.5
t-43.5 -137.5q0 -86 43 -137t115 -51q46 0 68.5 12.5z" />
    <glyph glyph-name="sterling" unicode="&#xa3;" horiz-adv-x="515" 
d="M448 75l-8 -75h-355v98q24 10 47 39.5t23 69.5q0 29 -8 64h-85v99h59q-9 45 -9 77q0 94 53 143.5t140 49.5q16 0 55 -3q18 -2 25 -2q9 0 13.5 1.5t8.5 5.5h8l9 -136h-8q-13 16 -38 27t-62 11q-94 0 -94 -96q0 -31 10 -78h150v-99h-130q6 -46 6 -68q0 -56 -30 -105h101
q41 0 73 6t45 19l7 -1z" />
    <glyph glyph-name="currency" unicode="&#xa4;" horiz-adv-x="501" 
d="M431 157l59 -59l-54 -54l-63 63q-45 -24 -109 -24q-62 0 -108 23l-62 -62l-54 54l58 58q-34 48 -34 120q0 65 28 112l-52 52l54 54l53 -53q48 28 117 28q71 0 118 -29l54 54l54 -54l-53 -53q28 -47 28 -111q0 -71 -34 -119zM363 276q0 111 -99 111q-98 0 -98 -111
q0 -112 98 -112q99 0 99 112z" />
    <glyph glyph-name="yen" unicode="&#xa5;" horiz-adv-x="569" 
d="M522 542q-14 -14 -36.5 -50.5t-44.5 -80.5l-71 -142h65v-63h-83v-35h83v-63h-82q3 -79 25 -101v-8h-47l-85 1h-47v8q21 21 26 100h-83v63h85v35h-85v63h66l-77 143q-22 41 -46 78t-39 52v8l195 -1v-8q-9 -9 -9 -26q0 -36 34 -106l36 -76l34 75q32 69 32 105q0 19 -9 28v8
h47l69 1h47v-8z" />
    <glyph glyph-name="brokenbar" unicode="&#xa6;" horiz-adv-x="135" 
d="M122 760v-310h-82v310h82zM40 -94v384h82v-384h-82z" />
    <glyph glyph-name="section" unicode="&#xa7;" horiz-adv-x="526" 
d="M458.5 186q-20.5 -31 -56.5 -49q39 -41 39 -97q1 -52 -26 -91t-73.5 -60t-103.5 -21q-44 0 -91 14q-18 6 -27 6q-10 0 -18 -10h-8l-7 157h8q6 -13 25 -29.5t48.5 -29t65.5 -12.5q44 0 68.5 19t24.5 49q-1 29 -25.5 46t-76.5 38l-29 12q-49 21 -78 37t-50 45.5t-21 74.5
q0 38 20.5 70.5t56.5 53.5q-40 35 -40 89q0 67 53.5 109t150.5 42q35 0 60 -4t31 -5q13 0 22 10h8l6 -144h-8q-11 19 -47 33t-77 14q-42 0 -62 -15.5t-20 -35.5q0 -18 15 -31t32.5 -20t53.5 -20q91 -29 134 -67t43 -104q0 -43 -20.5 -74zM173 259q22 -18 44 -28t73 -29
q10 -3 28 -11q27 6 40 22.5t13 36.5q0 27 -17 45t-41.5 29t-66.5 25q-20 6 -30 10q-30 -6 -47.5 -22t-17.5 -37q0 -23 22 -41z" />
    <glyph glyph-name="dieresis" unicode="&#xa8;" horiz-adv-x="371" 
d="M56.5 644q-16.5 17 -16.5 46q0 27 17 42.5t44 15.5q26 0 42.5 -16t16.5 -44t-16.5 -44.5t-42.5 -16.5q-28 0 -44.5 17zM280.5 644q-16.5 17 -16.5 46q0 27 17 42.5t44 15.5q26 0 42.5 -16t16.5 -44t-16.5 -44.5t-42.5 -16.5q-28 0 -44.5 17z" />
    <glyph glyph-name="copyright" unicode="&#xa9;" horiz-adv-x="682" 
d="M183 13.5q-68 37.5 -105.5 105.5t-37.5 158q0 89 37.5 157t105.5 105.5t158 37.5t158 -37.5t105.5 -105.5t37.5 -157q0 -90 -37.5 -158t-105.5 -105.5t-158 -37.5t-158 37.5zM473.5 55q57.5 32 89.5 89.5t32 132.5t-32 132.5t-89.5 89t-132.5 31.5t-132.5 -31.5
t-89.5 -89t-32 -132.5t32 -132.5t89.5 -89.5t132.5 -32t132.5 32zM265 117.5q-41 20.5 -67.5 61t-26.5 97.5q0 58 26.5 98.5t68 61t84.5 20.5q26 0 41 -1t23 -1q10 0 14 4h4l5 -107h-5q-7 10 -27 17.5t-47 7.5q-42 0 -66.5 -27.5t-24.5 -72.5q0 -44 24 -72t65 -28
q30 0 49.5 9t26.5 20h5l-5 -106h-4q-6 3 -14 3l-20 -2q-39 -3 -46 -3q-42 0 -83 20.5z" />
    <glyph glyph-name="ordfeminine" unicode="&#xaa;" horiz-adv-x="361" 
d="M345 215v-7h-128v7q14 14 14 55q0 9 -2 29l-101 -16q-2 -53 13 -68v-7h-113v7q12 13 23 47.5t18 77.5l13 78q7 44 7 71q0 40 -13 54v7h195l33 -210q17 -101 41 -125zM136 346l85 13l-20 129l-42 1z" />
    <glyph glyph-name="guillemotleft" unicode="&#xab;" horiz-adv-x="567" 
d="M162 269l162 -212h-116l-162 212l162 212h116zM384 269l162 -212h-116l-162 212l162 212h116z" />
    <glyph glyph-name="uni00AD" unicode="&#xad;" horiz-adv-x="370" 
d="M296 250h-250v88h250v-88z" />
    <glyph glyph-name="registered" unicode="&#xae;" horiz-adv-x="682" 
d="M499 539.5q68 -37.5 105.5 -105.5t37.5 -157q0 -90 -37.5 -158t-105.5 -105.5t-158 -37.5t-158 37.5t-105.5 105.5t-37.5 158q0 89 37.5 157t105.5 105.5t158 37.5t158 -37.5zM473.5 55q57.5 32 89.5 89.5t32 132.5t-32 132.5t-89.5 89t-132.5 31.5t-132.5 -31.5
t-89.5 -89t-32 -132.5t32 -132.5t89.5 -89.5t132.5 -32t132.5 32zM458.5 161q19.5 -38 33.5 -52v-8h-121v8q8 8 8 24q0 29 -26 84q-22 -6 -47 -6q2 -36 8 -63.5t17 -38.5v-8h-135v8q14 14 20.5 53.5t6.5 90.5l1 45q0 51 -6.5 90.5t-20.5 53.5v8h175q50 0 80.5 -29.5
t30.5 -70.5q0 -28 -16.5 -55t-45.5 -48l1 -2q17 -46 36.5 -84zM374 299q25 21 25 50q0 17 -11 25.5t-36 8.5h-46l-1 -104q44 -1 69 20z" />
    <glyph glyph-name="macron" unicode="&#xaf;" horiz-adv-x="354" 
d="M314 690h-274v64h274v-64z" />
    <glyph glyph-name="degree" unicode="&#xb0;" horiz-adv-x="273" 
d="M70 393.5q-30 32.5 -30 89.5q0 52 30.5 81.5t80.5 29.5q48 0 78.5 -31t30.5 -85t-30.5 -85.5t-78.5 -31.5q-51 0 -81 32.5zM188.5 434q14.5 16 14.5 44q0 27 -14.5 43t-37.5 16q-24 0 -39 -15t-15 -42q0 -29 14.5 -45.5t39.5 -16.5q23 0 37.5 16z" />
    <glyph glyph-name="plusminus" unicode="&#xb1;" horiz-adv-x="480" 
d="M440 367h-151v-103h-98v103h-151v88h151v93h98v-93h151v-88zM440 203v-90h-400v90h400z" />
    <glyph glyph-name="uni00B2" unicode="&#xb2;" horiz-adv-x="361" 
d="M292 266l-6 -54h-227v35q0 48 24 92t72 68q35 18 47.5 27t12.5 27q0 30 -57 30q-23 0 -48.5 -9t-31.5 -20h-5l6 92h5q5 -5 13 -5q4 1 22.5 6t54.5 5q55 0 87 -28.5t32 -68.5q0 -39 -22 -62.5t-85 -56.5q-21 -11 -34.5 -28t-17.5 -36h83q58 0 74 16l4 -1z" />
    <glyph glyph-name="uni00B3" unicode="&#xb3;" horiz-adv-x="348" 
d="M266 364q16 -21 16 -48q0 -46 -36 -78t-102 -32q-22 0 -38.5 2.5t-19.5 2.5h-3q-7 0 -10 -5h-5l-6 92h5q6 -11 29.5 -17t48.5 -6q29 0 43.5 14t14.5 32q0 20 -15 32t-40 12q-12 0 -25 -3v59q14 -2 20 -2q22 0 35.5 10.5t13.5 29.5q0 15 -11.5 23.5t-34.5 8.5
q-26 0 -49.5 -6t-29.5 -17h-5l6 92h5q5 -7 13 -5q3 0 19.5 2.5t38.5 2.5q66 0 96 -25.5t30 -68.5q0 -48 -43 -73q23 -8 39 -29z" />
    <glyph glyph-name="acute" unicode="&#xb4;" horiz-adv-x="208" 
d="M40 612l62 148h107l-93 -148h-76z" />
    <glyph glyph-name="paragraph" unicode="&#xb6;" horiz-adv-x="440" 
d="M334 702l-2 -796l-71 1h-47v8q14 14 20.5 53.5t6.5 90.5l1 259h-10q-52 0 -96 26t-70 70.5t-26 96.5t26 96t70 70t96 26h50v-1h52zM512.5 640.5q-6.5 -39.5 -6.5 -90.5l-2 -492q0 -51 6.5 -90.5t20.5 -53.5v-8h-47l-71 1l2 795h118v-8q-14 -14 -20.5 -53.5z" />
    <glyph glyph-name="periodcentered" unicode="&#xb7;" horiz-adv-x="188" 
d="M60.5 252q-14.5 14 -14.5 38t14.5 38t37.5 14t37.5 -14t14.5 -38t-14.5 -38t-37.5 -14t-37.5 14z" />
    <glyph glyph-name="cedilla" unicode="&#xb8;" horiz-adv-x="248" 
d="M188 -59q20 -21 20 -50q0 -33 -23.5 -60t-67.5 -27q-27 0 -64 10v44q27 -13 51 -13q26 0 38 13t12 29q0 14 -8.5 24t-26.5 10q-22 0 -35 -21l-3 -5l-41 24l69 123l46 -22l-35 -59q4 1 12 1q36 0 56 -21z" />
    <glyph glyph-name="uni00B9" unicode="&#xb9;" horiz-adv-x="268" 
d="M201 215v-7h-126v7q24 24 24 127v46q0 104 -29 117l-3 6l39 16l56 22l16 1l-1 -208q0 -103 24 -127z" />
    <glyph glyph-name="ordmasculine" unicode="&#xba;" horiz-adv-x="382" 
d="M321 289q-20 -40 -54 -61t-76 -21q-66 0 -108 48.5t-42 128.5q0 82 42.5 129t107.5 47q67 0 108.5 -48t41.5 -128q0 -55 -20 -95zM245.5 300.5q17.5 29.5 17.5 83.5q0 53 -18 82.5t-54 29.5t-54 -29.5t-18 -82.5q0 -54 17.5 -83.5t54.5 -29.5t54.5 29.5z" />
    <glyph glyph-name="guillemotright" unicode="&#xbb;" horiz-adv-x="567" 
d="M162 57h-116l162 212l-162 212h116l162 -212zM384 57h-116l162 212l-162 212h116l162 -212z" />
    <glyph glyph-name="onequarter" unicode="&#xbc;" horiz-adv-x="688" 
d="M224 -2h-62l228 571h62zM146 550l-1 -342h-79l1 316l63 25zM583 64v-65l-79 1v64h-138l-16 37l169 240h65l-1 -212h39l-2 -65h-37zM505 229l-67 -100h66z" />
    <glyph glyph-name="onehalf" unicode="&#xbd;" horiz-adv-x="751" 
d="M75 208v7q24 24 24 127v46q0 104 -29 117l-3 6l39 16l56 22l16 1l-1 -208q0 -103 24 -127v-7h-126zM682 54l-6 -54h-227v35q0 49 24 92.5t72 67.5q34 17 46.5 26.5t12.5 27.5q0 30 -56 30q-23 0 -48 -9t-32 -20h-5l6 92h5q5 -5 11 -5q4 0 23 5.5t56 5.5q55 0 87 -28.5
t32 -68.5q0 -27 -10 -45t-32 -34t-66 -40q-20 -11 -33.5 -28.5t-17.5 -35.5h83q58 0 74 16l4 -1zM256 -2h-61l228 571h61z" />
    <glyph glyph-name="threequarters" unicode="&#xbe;" horiz-adv-x="769" 
d="M246 238q-36 -32 -102 -32q-35 0 -58 5h-3q-7 0 -10 -5h-5l-6 92h5q6 -11 29.5 -17t48.5 -6q29 0 43.5 14t14.5 32q0 20 -15 32t-40 12q-12 0 -25 -3v59q14 -2 20 -2q22 0 35.5 10.5t13.5 29.5q0 15 -11.5 23.5t-34.5 8.5q-26 0 -49.5 -6t-29.5 -17h-5l6 92h5q5 -7 13 -5
q20 5 58 5q66 0 96 -25.5t30 -68.5q0 -23 -11.5 -42t-30.5 -30q23 -9 38.5 -29.5t15.5 -48.5q0 -46 -36 -78zM303 -2h-62l228 571h62zM664 64v-65l-79 1v64h-138l-16 37l169 240h65l-1 -212h39l-2 -65h-37zM586 229l-67 -100h66z" />
    <glyph glyph-name="questiondown" unicode="&#xbf;" horiz-adv-x="435" 
d="M198.5 469.5q-16.5 15.5 -16.5 43.5t16.5 44.5t43.5 16.5t44 -16.5t17 -44.5t-17 -43.5t-44 -15.5t-43.5 15.5zM132.5 -167.5q-42.5 21.5 -64.5 57t-22 76.5t13.5 74.5t33 57.5t50.5 56q38 38 56 64.5t18 60.5q0 16 -10 31.5t-28 23.5q16 44 58 44q30 0 52.5 -29
t22.5 -76q0 -50 -20.5 -84.5t-61.5 -79.5q-33 -35 -49 -60t-16 -57q0 -79 91 -79q38 0 79.5 14.5t51.5 31.5h8l-9 -139h-8q-7 8 -18 8q-5 0 -35.5 -8.5t-92.5 -8.5q-57 0 -99.5 21.5z" />
    <glyph glyph-name="multiply" unicode="&#xd7;" horiz-adv-x="398" 
d="M392 171l-62 -62l-107 107l-114 -114l-69 69l114 114l-107 107l62 62l107 -107l107 107l69 -69l-107 -107z" />
    <glyph glyph-name="divide" unicode="&#xf7;" horiz-adv-x="390" 
d="M182 451q-17 16 -17 44t17 44t44 16t43.5 -16t16.5 -44t-16.5 -44t-43.5 -16t-44 16zM182 6.5q-17 16.5 -17 44.5t17 43.5t44 15.5t43.5 -15.5t16.5 -43.5t-16.5 -44.5t-43.5 -16.5t-44 16.5zM411 228h-371v90h371v-90z" />
    <glyph glyph-name="circumflex" unicode="&#x2c6;" horiz-adv-x="371" 
d="M186 694l-67 -91h-79l119 157h53l119 -157h-79z" />
    <glyph glyph-name="tilde" unicode="&#x2dc;" horiz-adv-x="351" 
d="M295 687q-16 -29 -63 -29q-21 0 -36.5 8.5t-35.5 25.5q-15 12 -24 17.5t-18 5.5q-17 0 -23 -13t-6 -37h-49q0 48 19 76.5t60 28.5q17 0 31 -8t36 -24q16 -13 26 -19t21 -6q17 0 22.5 13t5.5 38h50q0 -48 -16 -77z" />
    <glyph glyph-name="uni0302" unicode="&#x302;" 
d="M-108 691l-55 -75h-81l109 144h54l109 -144h-80z" />
    <glyph glyph-name="uni0304" unicode="&#x304;" 
d="M-40 690h-274v64h274v-64z" />
    <glyph glyph-name="uni0306" unicode="&#x306;" 
d="M-50.5 648.5q-37.5 -45.5 -107.5 -45.5t-108 45.5t-38 111.5h68q0 -37 18 -64.5t60 -27.5q41 0 59 27.5t18 64.5h68q0 -66 -37.5 -111.5z" />
    <glyph glyph-name="uni0307" unicode="&#x307;" 
d="M-90.5 644q-16.5 17 -16.5 46q0 27 17 42.5t44 15.5q26 0 42.5 -16t16.5 -44t-16.5 -44.5t-42.5 -16.5q-28 0 -44.5 17z" />
    <glyph glyph-name="uni0308" unicode="&#x308;" 
d="M-234.5 644q-16.5 17 -16.5 46q0 27 17 42.5t44 15.5q26 0 42.5 -16t16.5 -44t-16.5 -44.5t-42.5 -16.5q-28 0 -44.5 17zM-36 644q-16 17 -16 46q0 27 16.5 42.5t43.5 15.5q26 0 43 -16t17 -44t-17 -44.5t-43 -16.5q-28 0 -44 17z" />
    <glyph glyph-name="uni030A" unicode="&#x30a;" 
d="M-206.5 617.5q-26.5 26.5 -26.5 72.5q0 44 27 69t70 25q42 0 69 -25.5t27 -70.5t-27 -71t-69 -26q-44 0 -70.5 26.5zM-102.5 653.5q12.5 12.5 12.5 34.5t-12.5 34t-33.5 12t-34.5 -12t-12.5 -34q0 -22 13 -34.5t34 -12.5t33.5 12.5z" />
    <glyph glyph-name="uni030B" unicode="&#x30b;" 
d="M-339 612l62 148h107l-93 -148h-76zM-156 612l62 148h107l-93 -148h-76z" />
    <glyph glyph-name="uni030C" unicode="&#x30c;" 
d="M-125 672l59 78h81l-113 -147h-53l-113 147h81z" />
    <glyph glyph-name="uni0312" unicode="&#x312;" 
d="M-2.5 721.5q15.5 -16.5 15.5 -44.5t-16.5 -44t-42.5 -16q-27 0 -44 19t-17 52q0 36 19.5 68t68.5 32v-23q-27 -5 -36 -28q4 1 12 1q25 0 40.5 -16.5z" />
    <glyph glyph-name="uni0326" unicode="&#x326;" 
d="M-4 -102q17 -19 17 -52q0 -36 -19.5 -68t-68.5 -32v23q28 5 36 27q-4 -1 -12 -1q-25 0 -40.5 17t-15.5 45t16.5 44t42.5 16q27 0 44 -19z" />
    <glyph glyph-name="uni0327" unicode="&#x327;" 
d="M-60 -59q20 -21 20 -50q0 -33 -23.5 -60t-67.5 -27q-27 0 -64 10v44q27 -13 51 -13q26 0 38 13t12 29q0 14 -8.5 24t-26.5 10q-22 0 -35 -21l-3 -5l-41 24l69 123l46 -22l-35 -59q4 1 12 1q36 0 56 -21z" />
    <glyph glyph-name="uni0328" unicode="&#x328;" 
d="M-153.5 2q-33.5 -32 -33.5 -80q0 -43 31.5 -71.5t75.5 -28.5q22 0 40 7v68q-19 -8 -33 -8q-24 0 -38 16.5t-14 38.5q0 27 20 49t53 36l-17 18q-51 -13 -84.5 -45z" />
    <glyph glyph-name="uni0335" unicode="&#x335;" 
d="M21 247h-371v91h371v-91z" />
    <glyph glyph-name="uni0337" unicode="&#x337;" 
d="M-385 -28l290 649h82l-290 -649h-82z" />
    <glyph glyph-name="uni0338" unicode="&#x338;" 
d="M-477 -44l335 749h82l-335 -749h-82z" />
    <glyph glyph-name="endash" unicode="&#x2013;" horiz-adv-x="593" 
d="M546 247h-500v91h500v-91z" />
    <glyph glyph-name="emdash" unicode="&#x2014;" horiz-adv-x="743" 
d="M696 247h-650v91h650v-91z" />
    <glyph glyph-name="quoteleft" unicode="&#x2018;" horiz-adv-x="213" 
d="M151 685q16 -17 16 -44q0 -29 -16.5 -45t-42.5 -16q-28 0 -45 19t-17 52q0 36 19.5 68t68.5 32v-23q-26 -5 -36 -27q4 1 12 1q25 0 41 -17z" />
    <glyph glyph-name="quoteright" unicode="&#x2019;" horiz-adv-x="213" 
d="M150 732q17 -19 17 -52q0 -36 -19.5 -68t-68.5 -32v22q27 5 36 28q-4 -1 -12 -1q-25 0 -41 17t-16 44q0 29 16.5 45t42.5 16q28 0 45 -19z" />
    <glyph glyph-name="quotesinglbase" unicode="&#x201a;" horiz-adv-x="213" 
d="M150 -19q17 -19 17 -52q0 -36 -19.5 -68t-68.5 -32v23q28 5 36 27q-4 -1 -12 -1q-25 0 -41 17t-16 44q0 29 16.5 45t42.5 16q28 0 45 -19z" />
    <glyph glyph-name="quotedblleft" unicode="&#x201c;" horiz-adv-x="378" 
d="M151 685q16 -17 16 -44q0 -29 -16.5 -45t-42.5 -16q-28 0 -45 19t-17 52q0 36 19.5 68t68.5 32v-23q-26 -5 -36 -27q4 1 12 1q25 0 41 -17zM316.5 685.5q15.5 -16.5 15.5 -44.5q0 -29 -16.5 -45t-42.5 -16q-27 0 -44 19t-17 52q0 36 19.5 68t68.5 32v-23q-28 -5 -36 -27
q4 1 12 1q25 0 40.5 -16.5z" />
    <glyph glyph-name="quotedblright" unicode="&#x201d;" horiz-adv-x="378" 
d="M150 732q17 -19 17 -52q0 -36 -19.5 -68t-68.5 -32v22q27 5 36 28q-4 -1 -12 -1q-25 0 -41 17t-16 44q0 29 16.5 45t42.5 16q28 0 45 -19zM315 732q17 -19 17 -52q0 -36 -19.5 -68t-68.5 -32v22q27 5 37 28q-4 -1 -13 -1q-25 0 -40.5 16.5t-15.5 44.5q0 29 16.5 45
t42.5 16q27 0 44 -19z" />
    <glyph glyph-name="quotedblbase" unicode="&#x201e;" horiz-adv-x="378" 
d="M150 93q17 -19 17 -52q0 -36 -19.5 -68t-68.5 -32v22q27 5 36 28q-4 -1 -12 -1q-25 0 -41 17t-16 44q0 29 16.5 45t42.5 16q28 0 45 -19zM315 93q17 -19 17 -52q0 -36 -19.5 -68t-68.5 -32v22q27 5 37 28q-4 -1 -13 -1q-25 0 -40.5 16.5t-15.5 44.5q0 29 16.5 45t42.5 16
q27 0 44 -19z" />
    <glyph glyph-name="dagger" unicode="&#x2020;" horiz-adv-x="391" 
d="M351 502h-8q-23 23 -106 26v-470q0 -51 6.5 -90.5t20.5 -53.5v-8h-137v8q14 14 20.5 53.5t6.5 90.5v470q-83 -3 -106 -26h-8v47l1 38v47h8q21 -21 105 -26q0 51 -6.5 90.5t-20.5 53.5v8h137v-8q-14 -14 -20.5 -53.5t-6.5 -90.5q83 3 106 26h8v-132z" />
    <glyph glyph-name="daggerdbl" unicode="&#x2021;" horiz-adv-x="391" 
d="M351 502h-8q-23 23 -106 26v-358q83 3 106 26h8v-132h-8q-23 23 -106 26v-32q0 -51 6.5 -90.5t20.5 -53.5v-8h-137v8q14 14 20.5 53.5t6.5 90.5v32q-83 -3 -106 -26h-8v47l1 38v47h8q21 -21 105 -26v358q-83 -3 -106 -26h-8v47l1 38v47h8q21 -21 105 -26q0 51 -6.5 90.5
t-20.5 53.5v8h137v-8q-14 -14 -20.5 -53.5t-6.5 -90.5q83 3 106 26h8v-132z" />
    <glyph glyph-name="bullet" unicode="&#x2022;" horiz-adv-x="275" 
d="M71.5 223q-25.5 24 -25.5 67t25.5 67t66.5 24t66 -24t25 -67t-25 -67t-66 -24t-66.5 24z" />
    <glyph glyph-name="ellipsis" unicode="&#x2026;" horiz-adv-x="618" 
d="M269.5 6.5q-16.5 16.5 -17.5 44.5q0 28 16.5 43.5t44.5 15.5q26 0 43 -15.5t17 -43.5t-17 -44.5t-43 -16.5q-27 0 -43.5 16.5zM468.5 6.5q-16.5 16.5 -17.5 44.5q0 28 16.5 43.5t44.5 15.5q26 0 43 -15.5t17 -43.5t-17 -44.5t-43 -16.5q-27 0 -43.5 16.5zM63.5 6.5
q-16.5 16.5 -17.5 44.5q0 28 16.5 43.5t44.5 15.5q26 0 43 -15.5t17 -43.5t-17 -44.5t-43 -16.5q-27 0 -43.5 16.5z" />
    <glyph glyph-name="perthousand" unicode="&#x2030;" horiz-adv-x="979" 
d="M74 307q-34 40 -34 106q0 68 34.5 107t89.5 39q56 0 88.5 -40t32.5 -106q0 -68 -33.5 -107t-87.5 -39q-56 0 -90 40zM212 413q0 38 -12 59t-36 21q-50 0 -50 -80t50 -80q48 0 48 80zM426.5 30q-33.5 40 -33.5 106q0 68 34 107t89 39q56 0 89.5 -40t33.5 -106
q0 -68 -34 -107t-89 -39q-56 0 -89.5 40zM727.5 30q-33.5 40 -33.5 106q0 68 34 107t89 39q56 0 89 -40t33 -106q0 -68 -34 -107t-88 -39q-56 0 -89.5 40zM565 136q0 79 -49 79t-49 -79q0 -80 49 -80t49 80zM865 136q0 38 -12 58.5t-36 20.5q-50 0 -50 -79q0 -80 50 -80
q48 0 48 80zM488 569l-228 -571h-68l228 571h68z" />
    <glyph glyph-name="guilsinglleft" unicode="&#x2039;" horiz-adv-x="370" 
d="M162 269l162 -212h-116l-162 212l162 212h116z" />
    <glyph glyph-name="guilsinglright" unicode="&#x203a;" horiz-adv-x="370" 
d="M162 57h-116l162 212l-162 212h116l162 -212z" />
    <glyph glyph-name="Euro" unicode="&#x20ac;" horiz-adv-x="532" 
d="M447.5 100.5q22.5 12.5 36.5 31.5l8 1l-6 -137h-8q-6 7 -18 7q-5 0 -25 -4q-40 -7 -66 -7q-53 0 -105 21.5t-92 65t-58 106.5h-74v63h63q-1 9 -1 28q0 13 2 37h-64v63h77q28 89 100 136.5t155 47.5q19 0 64 -3q16 -2 22 -2q14 0 20 7h8l6 -138h-8q-28 40 -102 40
q-49 0 -85.5 -23t-56.5 -65h166v-63h-183q-2 -24 -2 -37q0 -19 1 -28h130v-63h-115q18 -46 55 -71.5t87 -25.5q46 0 68.5 12.5z" />
    <glyph glyph-name="trademark" unicode="&#x2122;" horiz-adv-x="730" 
d="M282 464h-8q-20 19 -74 22l-2 -126q0 -51 6.5 -90.5t20.5 -53.5v-8l-127 1v8q14 14 20.5 53.5t6.5 90.5l2 127q-59 -5 -79 -23h-8l7 86l229 -1zM690 542q-16 -15 -22 -56.5t-6 -117.5q0 -126 26 -152v-8l-127 1v8q26 26 28 167v47l-90 -156l-89 152v-42q-2 -142 25 -169
v-8l-114 1v8q16 15 21.5 60t5.5 126q0 59 -6 92t-20 47v8h89l89 -157l89 157h101v-8z" />
  </font>
</defs>
</svg>
